<svg xmlns="http://www.w3.org/2000/svg" viewBox="0 0 700 400" font-family="system-ui,-apple-system,sans-serif">
<rect width="700" height="400" fill="#fcfcfb"/>
<text x="72" y="28" fill="#0b0b0b" font-size="15" font-weight="600">Wall-Clock Time vs Thread Count</text>
<line x1="72" y1="348.0" x2="532" y2="348.0" stroke="#e1e0d9" stroke-width="1"/>
<text x="62" y="352.0" fill="#898781" font-size="11" text-anchor="end">0</text>
<line x1="72" y1="288.4" x2="532" y2="288.4" stroke="#e1e0d9" stroke-width="1"/>
<text x="62" y="292.4" fill="#898781" font-size="11" text-anchor="end">10.0s</text>
<line x1="72" y1="228.8" x2="532" y2="228.8" stroke="#e1e0d9" stroke-width="1"/>
<text x="62" y="232.8" fill="#898781" font-size="11" text-anchor="end">20.0s</text>
<line x1="72" y1="169.2" x2="532" y2="169.2" stroke="#e1e0d9" stroke-width="1"/>
<text x="62" y="173.2" fill="#898781" font-size="11" text-anchor="end">30.0s</text>
<line x1="72" y1="109.6" x2="532" y2="109.6" stroke="#e1e0d9" stroke-width="1"/>
<text x="62" y="113.6" fill="#898781" font-size="11" text-anchor="end">40.0s</text>
<line x1="72" y1="50.0" x2="532" y2="50.0" stroke="#e1e0d9" stroke-width="1"/>
<text x="62" y="54.0" fill="#898781" font-size="11" text-anchor="end">50.0s</text>
<line x1="72" y1="348.0" x2="532" y2="348.0" stroke="#c3c2b7" stroke-width="1"/>
<text x="72.0" y="366.0" fill="#898781" font-size="11" text-anchor="middle">1</text>
<text x="187.0" y="366.0" fill="#898781" font-size="11" text-anchor="middle">2</text>
<text x="302.0" y="366.0" fill="#898781" font-size="11" text-anchor="middle">4</text>
<text x="417.0" y="366.0" fill="#898781" font-size="11" text-anchor="middle">8</text>
<text x="532.0" y="366.0" fill="#898781" font-size="11" text-anchor="middle">16</text>
<text x="302.0" y="392.0" fill="#52514e" font-size="12" text-anchor="middle">Threads</text>
<text x="14" y="199.0" fill="#52514e" font-size="12" text-anchor="middle" transform="rotate(-90,14,199.0)">Time (seconds)</text>
<polyline points="72.0,139.7 187.0,221.8 302.0,264.1 417.0,282.4 532.0,289.9" fill="none" stroke="#2a78d6" stroke-width="2" stroke-linejoin="round" stroke-linecap="round"/>
<line x1="72.0" y1="142.0" x2="72.0" y2="137.0" stroke="#2a78d6" stroke-width="1" opacity="0.4"/>
<line x1="69.0" y1="142.0" x2="75.0" y2="142.0" stroke="#2a78d6" stroke-width="1" opacity="0.4"/>
<line x1="69.0" y1="137.0" x2="75.0" y2="137.0" stroke="#2a78d6" stroke-width="1" opacity="0.4"/>
<line x1="187.0" y1="223.6" x2="187.0" y2="220.0" stroke="#2a78d6" stroke-width="1" opacity="0.4"/>
<line x1="184.0" y1="223.6" x2="190.0" y2="223.6" stroke="#2a78d6" stroke-width="1" opacity="0.4"/>
<line x1="184.0" y1="220.0" x2="190.0" y2="220.0" stroke="#2a78d6" stroke-width="1" opacity="0.4"/>
<line x1="302.0" y1="265.0" x2="302.0" y2="262.9" stroke="#2a78d6" stroke-width="1" opacity="0.4"/>
<line x1="299.0" y1="265.0" x2="305.0" y2="265.0" stroke="#2a78d6" stroke-width="1" opacity="0.4"/>
<line x1="299.0" y1="262.9" x2="305.0" y2="262.9" stroke="#2a78d6" stroke-width="1" opacity="0.4"/>
<line x1="417.0" y1="285.1" x2="417.0" y2="278.2" stroke="#2a78d6" stroke-width="1" opacity="0.4"/>
<line x1="414.0" y1="285.1" x2="420.0" y2="285.1" stroke="#2a78d6" stroke-width="1" opacity="0.4"/>
<line x1="414.0" y1="278.2" x2="420.0" y2="278.2" stroke="#2a78d6" stroke-width="1" opacity="0.4"/>
<line x1="532.0" y1="291.7" x2="532.0" y2="288.0" stroke="#2a78d6" stroke-width="1" opacity="0.4"/>
<line x1="529.0" y1="291.7" x2="535.0" y2="291.7" stroke="#2a78d6" stroke-width="1" opacity="0.4"/>
<line x1="529.0" y1="288.0" x2="535.0" y2="288.0" stroke="#2a78d6" stroke-width="1" opacity="0.4"/>
<circle cx="72.0" cy="139.7" r="4" fill="#2a78d6" stroke="#fcfcfb" stroke-width="2"/>
<circle cx="187.0" cy="221.8" r="4" fill="#2a78d6" stroke="#fcfcfb" stroke-width="2"/>
<circle cx="302.0" cy="264.1" r="4" fill="#2a78d6" stroke="#fcfcfb" stroke-width="2"/>
<circle cx="417.0" cy="282.4" r="4" fill="#2a78d6" stroke="#fcfcfb" stroke-width="2"/>
<circle cx="532.0" cy="289.9" r="4" fill="#2a78d6" stroke="#fcfcfb" stroke-width="2"/>
<polyline points="72.0,312.9 187.0,318.8 302.0,322.1 417.0,318.4 532.0,323.8" fill="none" stroke="#1baf7a" stroke-width="2" stroke-linejoin="round" stroke-linecap="round"/>
<line x1="72.0" y1="313.9" x2="72.0" y2="311.1" stroke="#1baf7a" stroke-width="1" opacity="0.4"/>
<line x1="69.0" y1="313.9" x2="75.0" y2="313.9" stroke="#1baf7a" stroke-width="1" opacity="0.4"/>
<line x1="69.0" y1="311.1" x2="75.0" y2="311.1" stroke="#1baf7a" stroke-width="1" opacity="0.4"/>
<line x1="187.0" y1="320.3" x2="187.0" y2="316.6" stroke="#1baf7a" stroke-width="1" opacity="0.4"/>
<line x1="184.0" y1="320.3" x2="190.0" y2="320.3" stroke="#1baf7a" stroke-width="1" opacity="0.4"/>
<line x1="184.0" y1="316.6" x2="190.0" y2="316.6" stroke="#1baf7a" stroke-width="1" opacity="0.4"/>
<line x1="302.0" y1="323.7" x2="302.0" y2="320.6" stroke="#1baf7a" stroke-width="1" opacity="0.4"/>
<line x1="299.0" y1="323.7" x2="305.0" y2="323.7" stroke="#1baf7a" stroke-width="1" opacity="0.4"/>
<line x1="299.0" y1="320.6" x2="305.0" y2="320.6" stroke="#1baf7a" stroke-width="1" opacity="0.4"/>
<line x1="417.0" y1="320.4" x2="417.0" y2="316.0" stroke="#1baf7a" stroke-width="1" opacity="0.4"/>
<line x1="414.0" y1="320.4" x2="420.0" y2="320.4" stroke="#1baf7a" stroke-width="1" opacity="0.4"/>
<line x1="414.0" y1="316.0" x2="420.0" y2="316.0" stroke="#1baf7a" stroke-width="1" opacity="0.4"/>
<line x1="532.0" y1="325.9" x2="532.0" y2="321.4" stroke="#1baf7a" stroke-width="1" opacity="0.4"/>
<line x1="529.0" y1="325.9" x2="535.0" y2="325.9" stroke="#1baf7a" stroke-width="1" opacity="0.4"/>
<line x1="529.0" y1="321.4" x2="535.0" y2="321.4" stroke="#1baf7a" stroke-width="1" opacity="0.4"/>
<circle cx="72.0" cy="312.9" r="4" fill="#1baf7a" stroke="#fcfcfb" stroke-width="2"/>
<circle cx="187.0" cy="318.8" r="4" fill="#1baf7a" stroke="#fcfcfb" stroke-width="2"/>
<circle cx="302.0" cy="322.1" r="4" fill="#1baf7a" stroke="#fcfcfb" stroke-width="2"/>
<circle cx="417.0" cy="318.4" r="4" fill="#1baf7a" stroke="#fcfcfb" stroke-width="2"/>
<circle cx="532.0" cy="323.8" r="4" fill="#1baf7a" stroke="#fcfcfb" stroke-width="2"/>
<polyline points="72.0,313.3 187.0,315.1 302.0,318.1 417.0,320.1 532.0,320.4" fill="none" stroke="#eda100" stroke-width="2" stroke-linejoin="round" stroke-linecap="round"/>
<line x1="72.0" y1="314.1" x2="72.0" y2="312.1" stroke="#eda100" stroke-width="1" opacity="0.4"/>
<line x1="69.0" y1="314.1" x2="75.0" y2="314.1" stroke="#eda100" stroke-width="1" opacity="0.4"/>
<line x1="69.0" y1="312.1" x2="75.0" y2="312.1" stroke="#eda100" stroke-width="1" opacity="0.4"/>
<line x1="187.0" y1="317.2" x2="187.0" y2="313.8" stroke="#eda100" stroke-width="1" opacity="0.4"/>
<line x1="184.0" y1="317.2" x2="190.0" y2="317.2" stroke="#eda100" stroke-width="1" opacity="0.4"/>
<line x1="184.0" y1="313.8" x2="190.0" y2="313.8" stroke="#eda100" stroke-width="1" opacity="0.4"/>
<line x1="302.0" y1="319.3" x2="302.0" y2="316.3" stroke="#eda100" stroke-width="1" opacity="0.4"/>
<line x1="299.0" y1="319.3" x2="305.0" y2="319.3" stroke="#eda100" stroke-width="1" opacity="0.4"/>
<line x1="299.0" y1="316.3" x2="305.0" y2="316.3" stroke="#eda100" stroke-width="1" opacity="0.4"/>
<line x1="417.0" y1="321.5" x2="417.0" y2="318.5" stroke="#eda100" stroke-width="1" opacity="0.4"/>
<line x1="414.0" y1="321.5" x2="420.0" y2="321.5" stroke="#eda100" stroke-width="1" opacity="0.4"/>
<line x1="414.0" y1="318.5" x2="420.0" y2="318.5" stroke="#eda100" stroke-width="1" opacity="0.4"/>
<line x1="532.0" y1="321.2" x2="532.0" y2="319.0" stroke="#eda100" stroke-width="1" opacity="0.4"/>
<line x1="529.0" y1="321.2" x2="535.0" y2="321.2" stroke="#eda100" stroke-width="1" opacity="0.4"/>
<line x1="529.0" y1="319.0" x2="535.0" y2="319.0" stroke="#eda100" stroke-width="1" opacity="0.4"/>
<circle cx="72.0" cy="313.3" r="4" fill="#eda100" stroke="#fcfcfb" stroke-width="2"/>
<circle cx="187.0" cy="315.1" r="4" fill="#eda100" stroke="#fcfcfb" stroke-width="2"/>
<circle cx="302.0" cy="318.1" r="4" fill="#eda100" stroke="#fcfcfb" stroke-width="2"/>
<circle cx="417.0" cy="320.1" r="4" fill="#eda100" stroke="#fcfcfb" stroke-width="2"/>
<circle cx="532.0" cy="320.4" r="4" fill="#eda100" stroke="#fcfcfb" stroke-width="2"/>
<polyline points="72.0,329.0 187.0,334.1 302.0,336.6 417.0,338.0 532.0,338.7" fill="none" stroke="#008300" stroke-width="2" stroke-linejoin="round" stroke-linecap="round"/>
<line x1="72.0" y1="329.6" x2="72.0" y2="328.2" stroke="#008300" stroke-width="1" opacity="0.4"/>
<line x1="69.0" y1="329.6" x2="75.0" y2="329.6" stroke="#008300" stroke-width="1" opacity="0.4"/>
<line x1="69.0" y1="328.2" x2="75.0" y2="328.2" stroke="#008300" stroke-width="1" opacity="0.4"/>
<line x1="187.0" y1="334.8" x2="187.0" y2="332.8" stroke="#008300" stroke-width="1" opacity="0.4"/>
<line x1="184.0" y1="334.8" x2="190.0" y2="334.8" stroke="#008300" stroke-width="1" opacity="0.4"/>
<line x1="184.0" y1="332.8" x2="190.0" y2="332.8" stroke="#008300" stroke-width="1" opacity="0.4"/>
<line x1="302.0" y1="337.7" x2="302.0" y2="335.2" stroke="#008300" stroke-width="1" opacity="0.4"/>
<line x1="299.0" y1="337.7" x2="305.0" y2="337.7" stroke="#008300" stroke-width="1" opacity="0.4"/>
<line x1="299.0" y1="335.2" x2="305.0" y2="335.2" stroke="#008300" stroke-width="1" opacity="0.4"/>
<line x1="417.0" y1="339.0" x2="417.0" y2="337.0" stroke="#008300" stroke-width="1" opacity="0.4"/>
<line x1="414.0" y1="339.0" x2="420.0" y2="339.0" stroke="#008300" stroke-width="1" opacity="0.4"/>
<line x1="414.0" y1="337.0" x2="420.0" y2="337.0" stroke="#008300" stroke-width="1" opacity="0.4"/>
<line x1="532.0" y1="339.1" x2="532.0" y2="337.8" stroke="#008300" stroke-width="1" opacity="0.4"/>
<line x1="529.0" y1="339.1" x2="535.0" y2="339.1" stroke="#008300" stroke-width="1" opacity="0.4"/>
<line x1="529.0" y1="337.8" x2="535.0" y2="337.8" stroke="#008300" stroke-width="1" opacity="0.4"/>
<circle cx="72.0" cy="329.0" r="4" fill="#008300" stroke="#fcfcfb" stroke-width="2"/>
<circle cx="187.0" cy="334.1" r="4" fill="#008300" stroke="#fcfcfb" stroke-width="2"/>
<circle cx="302.0" cy="336.6" r="4" fill="#008300" stroke="#fcfcfb" stroke-width="2"/>
<circle cx="417.0" cy="338.0" r="4" fill="#008300" stroke="#fcfcfb" stroke-width="2"/>
<circle cx="532.0" cy="338.7" r="4" fill="#008300" stroke="#fcfcfb" stroke-width="2"/>
<polyline points="72.0,347.6 187.0,346.5 302.0,347.6 417.0,347.5 532.0,347.5" fill="none" stroke="#4a3aa7" stroke-width="2" stroke-linejoin="round" stroke-linecap="round"/>
<line x1="72.0" y1="347.6" x2="72.0" y2="347.6" stroke="#4a3aa7" stroke-width="1" opacity="0.4"/>
<line x1="69.0" y1="347.6" x2="75.0" y2="347.6" stroke="#4a3aa7" stroke-width="1" opacity="0.4"/>
<line x1="69.0" y1="347.6" x2="75.0" y2="347.6" stroke="#4a3aa7" stroke-width="1" opacity="0.4"/>
<line x1="187.0" y1="346.7" x2="187.0" y2="346.0" stroke="#4a3aa7" stroke-width="1" opacity="0.4"/>
<line x1="184.0" y1="346.7" x2="190.0" y2="346.7" stroke="#4a3aa7" stroke-width="1" opacity="0.4"/>
<line x1="184.0" y1="346.0" x2="190.0" y2="346.0" stroke="#4a3aa7" stroke-width="1" opacity="0.4"/>
<line x1="302.0" y1="347.6" x2="302.0" y2="347.5" stroke="#4a3aa7" stroke-width="1" opacity="0.4"/>
<line x1="299.0" y1="347.6" x2="305.0" y2="347.6" stroke="#4a3aa7" stroke-width="1" opacity="0.4"/>
<line x1="299.0" y1="347.5" x2="305.0" y2="347.5" stroke="#4a3aa7" stroke-width="1" opacity="0.4"/>
<line x1="417.0" y1="347.6" x2="417.0" y2="347.4" stroke="#4a3aa7" stroke-width="1" opacity="0.4"/>
<line x1="414.0" y1="347.6" x2="420.0" y2="347.6" stroke="#4a3aa7" stroke-width="1" opacity="0.4"/>
<line x1="414.0" y1="347.4" x2="420.0" y2="347.4" stroke="#4a3aa7" stroke-width="1" opacity="0.4"/>
<line x1="532.0" y1="347.5" x2="532.0" y2="347.5" stroke="#4a3aa7" stroke-width="1" opacity="0.4"/>
<line x1="529.0" y1="347.5" x2="535.0" y2="347.5" stroke="#4a3aa7" stroke-width="1" opacity="0.4"/>
<line x1="529.0" y1="347.5" x2="535.0" y2="347.5" stroke="#4a3aa7" stroke-width="1" opacity="0.4"/>
<circle cx="72.0" cy="347.6" r="4" fill="#4a3aa7" stroke="#fcfcfb" stroke-width="2"/>
<circle cx="187.0" cy="346.5" r="4" fill="#4a3aa7" stroke="#fcfcfb" stroke-width="2"/>
<circle cx="302.0" cy="347.6" r="4" fill="#4a3aa7" stroke="#fcfcfb" stroke-width="2"/>
<circle cx="417.0" cy="347.5" r="4" fill="#4a3aa7" stroke="#fcfcfb" stroke-width="2"/>
<circle cx="532.0" cy="347.5" r="4" fill="#4a3aa7" stroke="#fcfcfb" stroke-width="2"/>
<text x="80.0" y="142.7" fill="#52514e" font-size="9">34.9s</text>
<text x="80.0" y="310.4" fill="#52514e" font-size="9">5.9s</text>
<text x="80.0" y="321.4" fill="#52514e" font-size="9">5.8s</text>
<text x="80.0" y="332.4" fill="#52514e" font-size="9">3.2s</text>
<text x="80.0" y="350.6" fill="#52514e" font-size="9">73ms</text>
<text x="195.0" y="224.8" fill="#52514e" font-size="9">21.2s</text>
<text x="195.0" y="314.5" fill="#52514e" font-size="9">5.5s</text>
<text x="195.0" y="325.5" fill="#52514e" font-size="9">4.9s</text>
<text x="195.0" y="337.1" fill="#52514e" font-size="9">2.3s</text>
<text x="195.0" y="349.5" fill="#52514e" font-size="9">0.3s</text>
<text x="310.0" y="267.1" fill="#52514e" font-size="9">14.1s</text>
<text x="310.0" y="317.6" fill="#52514e" font-size="9">5.0s</text>
<text x="310.0" y="328.6" fill="#52514e" font-size="9">4.3s</text>
<text x="310.0" y="339.6" fill="#52514e" font-size="9">1.9s</text>
<text x="310.0" y="350.6" fill="#52514e" font-size="9">72ms</text>
<text x="425.0" y="285.4" fill="#52514e" font-size="9">11.0s</text>
<text x="425.0" y="316.7" fill="#52514e" font-size="9">5.0s</text>
<text x="425.0" y="327.7" fill="#52514e" font-size="9">4.7s</text>
<text x="425.0" y="340.3" fill="#52514e" font-size="9">1.7s</text>
<text x="425.0" y="351.3" fill="#52514e" font-size="9">79ms</text>
<text x="540.0" y="292.9" fill="#52514e" font-size="9">9.7s</text>
<text x="540.0" y="319.1" fill="#52514e" font-size="9">4.6s</text>
<text x="540.0" y="330.1" fill="#52514e" font-size="9">4.1s</text>
<text x="540.0" y="341.1" fill="#52514e" font-size="9">1.6s</text>
<text x="540.0" y="352.1" fill="#52514e" font-size="9">81ms</text>
<line x1="562" y1="60" x2="578" y2="60" stroke="#2a78d6" stroke-width="2" stroke-linecap="round"/>
<circle cx="570" cy="60" r="3.5" fill="#2a78d6" stroke="#fcfcfb" stroke-width="1.5"/>
<text x="584" y="64" fill="#0b0b0b" font-size="12">Timetree</text>
<line x1="562" y1="82" x2="578" y2="82" stroke="#1baf7a" stroke-width="2" stroke-linecap="round"/>
<circle cx="570" cy="82" r="3.5" fill="#1baf7a" stroke="#fcfcfb" stroke-width="1.5"/>
<text x="584" y="86" fill="#0b0b0b" font-size="12">Optimize</text>
<line x1="562" y1="104" x2="578" y2="104" stroke="#eda100" stroke-width="2" stroke-linecap="round"/>
<circle cx="570" cy="104" r="3.5" fill="#eda100" stroke="#fcfcfb" stroke-width="1.5"/>
<text x="584" y="108" fill="#0b0b0b" font-size="12">Ancestral</text>
<line x1="562" y1="126" x2="578" y2="126" stroke="#008300" stroke-width="2" stroke-linecap="round"/>
<circle cx="570" cy="126" r="3.5" fill="#008300" stroke="#fcfcfb" stroke-width="1.5"/>
<text x="584" y="130" fill="#0b0b0b" font-size="12">Mugration</text>
<line x1="562" y1="148" x2="578" y2="148" stroke="#4a3aa7" stroke-width="2" stroke-linecap="round"/>
<circle cx="570" cy="148" r="3.5" fill="#4a3aa7" stroke="#fcfcfb" stroke-width="1.5"/>
<text x="584" y="152" fill="#0b0b0b" font-size="12">Clock</text>
</svg>