<svg xmlns="http://www.w3.org/2000/svg" viewBox="0 0 700 400" font-family="system-ui,-apple-system,sans-serif">
<rect width="700" height="400" fill="#fcfcfb"/>
<text x="72" y="28" fill="#0b0b0b" font-size="15" font-weight="600">Wall-Clock Time vs Thread Count</text>
<line x1="72" y1="348.0" x2="532" y2="348.0" stroke="#e1e0d9" stroke-width="1"/>
<text x="62" y="352.0" fill="#898781" font-size="11" text-anchor="end">0</text>
<line x1="72" y1="288.4" x2="532" y2="288.4" stroke="#e1e0d9" stroke-width="1"/>
<text x="62" y="292.4" fill="#898781" font-size="11" text-anchor="end">10.0s</text>
<line x1="72" y1="228.8" x2="532" y2="228.8" stroke="#e1e0d9" stroke-width="1"/>
<text x="62" y="232.8" fill="#898781" font-size="11" text-anchor="end">20.0s</text>
<line x1="72" y1="169.2" x2="532" y2="169.2" stroke="#e1e0d9" stroke-width="1"/>
<text x="62" y="173.2" fill="#898781" font-size="11" text-anchor="end">30.0s</text>
<line x1="72" y1="109.6" x2="532" y2="109.6" stroke="#e1e0d9" stroke-width="1"/>
<text x="62" y="113.6" fill="#898781" font-size="11" text-anchor="end">40.0s</text>
<line x1="72" y1="50.0" x2="532" y2="50.0" stroke="#e1e0d9" stroke-width="1"/>
<text x="62" y="54.0" fill="#898781" font-size="11" text-anchor="end">50.0s</text>
<line x1="72" y1="348.0" x2="532" y2="348.0" stroke="#c3c2b7" stroke-width="1"/>
<text x="72.0" y="366.0" fill="#898781" font-size="11" text-anchor="middle">1</text>
<text x="187.0" y="366.0" fill="#898781" font-size="11" text-anchor="middle">2</text>
<text x="302.0" y="366.0" fill="#898781" font-size="11" text-anchor="middle">4</text>
<text x="417.0" y="366.0" fill="#898781" font-size="11" text-anchor="middle">8</text>
<text x="532.0" y="366.0" fill="#898781" font-size="11" text-anchor="middle">16</text>
<text x="302.0" y="392.0" fill="#52514e" font-size="12" text-anchor="middle">Threads</text>
<text x="14" y="199.0" fill="#52514e" font-size="12" text-anchor="middle" transform="rotate(-90,14,199.0)">Time (seconds)</text>
<polyline points="72.0,137.9 187.0,222.5 302.0,266.1 417.0,287.3 532.0,294.0" fill="none" stroke="#2a78d6" stroke-width="2" stroke-linejoin="round" stroke-linecap="round"/>
<line x1="72.0" y1="138.2" x2="72.0" y2="137.1" stroke="#2a78d6" stroke-width="1" opacity="0.4"/>
<line x1="69.0" y1="138.2" x2="75.0" y2="138.2" stroke="#2a78d6" stroke-width="1" opacity="0.4"/>
<line x1="69.0" y1="137.1" x2="75.0" y2="137.1" stroke="#2a78d6" stroke-width="1" opacity="0.4"/>
<line x1="187.0" y1="223.5" x2="187.0" y2="221.5" stroke="#2a78d6" stroke-width="1" opacity="0.4"/>
<line x1="184.0" y1="223.5" x2="190.0" y2="223.5" stroke="#2a78d6" stroke-width="1" opacity="0.4"/>
<line x1="184.0" y1="221.5" x2="190.0" y2="221.5" stroke="#2a78d6" stroke-width="1" opacity="0.4"/>
<line x1="302.0" y1="267.4" x2="302.0" y2="265.0" stroke="#2a78d6" stroke-width="1" opacity="0.4"/>
<line x1="299.0" y1="267.4" x2="305.0" y2="267.4" stroke="#2a78d6" stroke-width="1" opacity="0.4"/>
<line x1="299.0" y1="265.0" x2="305.0" y2="265.0" stroke="#2a78d6" stroke-width="1" opacity="0.4"/>
<line x1="417.0" y1="287.9" x2="417.0" y2="286.1" stroke="#2a78d6" stroke-width="1" opacity="0.4"/>
<line x1="414.0" y1="287.9" x2="420.0" y2="287.9" stroke="#2a78d6" stroke-width="1" opacity="0.4"/>
<line x1="414.0" y1="286.1" x2="420.0" y2="286.1" stroke="#2a78d6" stroke-width="1" opacity="0.4"/>
<line x1="532.0" y1="294.8" x2="532.0" y2="293.3" stroke="#2a78d6" stroke-width="1" opacity="0.4"/>
<line x1="529.0" y1="294.8" x2="535.0" y2="294.8" stroke="#2a78d6" stroke-width="1" opacity="0.4"/>
<line x1="529.0" y1="293.3" x2="535.0" y2="293.3" stroke="#2a78d6" stroke-width="1" opacity="0.4"/>
<circle cx="72.0" cy="137.9" r="4" fill="#2a78d6" stroke="#fcfcfb" stroke-width="2"/>
<circle cx="187.0" cy="222.5" r="4" fill="#2a78d6" stroke="#fcfcfb" stroke-width="2"/>
<circle cx="302.0" cy="266.1" r="4" fill="#2a78d6" stroke="#fcfcfb" stroke-width="2"/>
<circle cx="417.0" cy="287.3" r="4" fill="#2a78d6" stroke="#fcfcfb" stroke-width="2"/>
<circle cx="532.0" cy="294.0" r="4" fill="#2a78d6" stroke="#fcfcfb" stroke-width="2"/>
<polyline points="72.0,314.0 187.0,321.1 302.0,325.9 417.0,327.9 532.0,327.1" fill="none" stroke="#1baf7a" stroke-width="2" stroke-linejoin="round" stroke-linecap="round"/>
<line x1="72.0" y1="314.2" x2="72.0" y2="313.7" stroke="#1baf7a" stroke-width="1" opacity="0.4"/>
<line x1="69.0" y1="314.2" x2="75.0" y2="314.2" stroke="#1baf7a" stroke-width="1" opacity="0.4"/>
<line x1="69.0" y1="313.7" x2="75.0" y2="313.7" stroke="#1baf7a" stroke-width="1" opacity="0.4"/>
<line x1="187.0" y1="321.4" x2="187.0" y2="320.5" stroke="#1baf7a" stroke-width="1" opacity="0.4"/>
<line x1="184.0" y1="321.4" x2="190.0" y2="321.4" stroke="#1baf7a" stroke-width="1" opacity="0.4"/>
<line x1="184.0" y1="320.5" x2="190.0" y2="320.5" stroke="#1baf7a" stroke-width="1" opacity="0.4"/>
<line x1="302.0" y1="326.3" x2="302.0" y2="325.5" stroke="#1baf7a" stroke-width="1" opacity="0.4"/>
<line x1="299.0" y1="326.3" x2="305.0" y2="326.3" stroke="#1baf7a" stroke-width="1" opacity="0.4"/>
<line x1="299.0" y1="325.5" x2="305.0" y2="325.5" stroke="#1baf7a" stroke-width="1" opacity="0.4"/>
<line x1="417.0" y1="328.2" x2="417.0" y2="327.5" stroke="#1baf7a" stroke-width="1" opacity="0.4"/>
<line x1="414.0" y1="328.2" x2="420.0" y2="328.2" stroke="#1baf7a" stroke-width="1" opacity="0.4"/>
<line x1="414.0" y1="327.5" x2="420.0" y2="327.5" stroke="#1baf7a" stroke-width="1" opacity="0.4"/>
<line x1="532.0" y1="327.5" x2="532.0" y2="326.7" stroke="#1baf7a" stroke-width="1" opacity="0.4"/>
<line x1="529.0" y1="327.5" x2="535.0" y2="327.5" stroke="#1baf7a" stroke-width="1" opacity="0.4"/>
<line x1="529.0" y1="326.7" x2="535.0" y2="326.7" stroke="#1baf7a" stroke-width="1" opacity="0.4"/>
<circle cx="72.0" cy="314.0" r="4" fill="#1baf7a" stroke="#fcfcfb" stroke-width="2"/>
<circle cx="187.0" cy="321.1" r="4" fill="#1baf7a" stroke="#fcfcfb" stroke-width="2"/>
<circle cx="302.0" cy="325.9" r="4" fill="#1baf7a" stroke="#fcfcfb" stroke-width="2"/>
<circle cx="417.0" cy="327.9" r="4" fill="#1baf7a" stroke="#fcfcfb" stroke-width="2"/>
<circle cx="532.0" cy="327.1" r="4" fill="#1baf7a" stroke="#fcfcfb" stroke-width="2"/>
<polyline points="72.0,313.9 187.0,318.5 302.0,320.5 417.0,321.9 532.0,322.1" fill="none" stroke="#eda100" stroke-width="2" stroke-linejoin="round" stroke-linecap="round"/>
<line x1="72.0" y1="314.0" x2="72.0" y2="313.7" stroke="#eda100" stroke-width="1" opacity="0.4"/>
<line x1="69.0" y1="314.0" x2="75.0" y2="314.0" stroke="#eda100" stroke-width="1" opacity="0.4"/>
<line x1="69.0" y1="313.7" x2="75.0" y2="313.7" stroke="#eda100" stroke-width="1" opacity="0.4"/>
<line x1="187.0" y1="318.7" x2="187.0" y2="318.1" stroke="#eda100" stroke-width="1" opacity="0.4"/>
<line x1="184.0" y1="318.7" x2="190.0" y2="318.7" stroke="#eda100" stroke-width="1" opacity="0.4"/>
<line x1="184.0" y1="318.1" x2="190.0" y2="318.1" stroke="#eda100" stroke-width="1" opacity="0.4"/>
<line x1="302.0" y1="321.6" x2="302.0" y2="318.3" stroke="#eda100" stroke-width="1" opacity="0.4"/>
<line x1="299.0" y1="321.6" x2="305.0" y2="321.6" stroke="#eda100" stroke-width="1" opacity="0.4"/>
<line x1="299.0" y1="318.3" x2="305.0" y2="318.3" stroke="#eda100" stroke-width="1" opacity="0.4"/>
<line x1="417.0" y1="322.8" x2="417.0" y2="320.8" stroke="#eda100" stroke-width="1" opacity="0.4"/>
<line x1="414.0" y1="322.8" x2="420.0" y2="322.8" stroke="#eda100" stroke-width="1" opacity="0.4"/>
<line x1="414.0" y1="320.8" x2="420.0" y2="320.8" stroke="#eda100" stroke-width="1" opacity="0.4"/>
<line x1="532.0" y1="322.8" x2="532.0" y2="321.0" stroke="#eda100" stroke-width="1" opacity="0.4"/>
<line x1="529.0" y1="322.8" x2="535.0" y2="322.8" stroke="#eda100" stroke-width="1" opacity="0.4"/>
<line x1="529.0" y1="321.0" x2="535.0" y2="321.0" stroke="#eda100" stroke-width="1" opacity="0.4"/>
<circle cx="72.0" cy="313.9" r="4" fill="#eda100" stroke="#fcfcfb" stroke-width="2"/>
<circle cx="187.0" cy="318.5" r="4" fill="#eda100" stroke="#fcfcfb" stroke-width="2"/>
<circle cx="302.0" cy="320.5" r="4" fill="#eda100" stroke="#fcfcfb" stroke-width="2"/>
<circle cx="417.0" cy="321.9" r="4" fill="#eda100" stroke="#fcfcfb" stroke-width="2"/>
<circle cx="532.0" cy="322.1" r="4" fill="#eda100" stroke="#fcfcfb" stroke-width="2"/>
<polyline points="72.0,329.2 187.0,334.8 302.0,337.7 417.0,337.9 532.0,338.9" fill="none" stroke="#008300" stroke-width="2" stroke-linejoin="round" stroke-linecap="round"/>
<line x1="72.0" y1="329.4" x2="72.0" y2="329.0" stroke="#008300" stroke-width="1" opacity="0.4"/>
<line x1="69.0" y1="329.4" x2="75.0" y2="329.4" stroke="#008300" stroke-width="1" opacity="0.4"/>
<line x1="69.0" y1="329.0" x2="75.0" y2="329.0" stroke="#008300" stroke-width="1" opacity="0.4"/>
<line x1="187.0" y1="335.1" x2="187.0" y2="334.5" stroke="#008300" stroke-width="1" opacity="0.4"/>
<line x1="184.0" y1="335.1" x2="190.0" y2="335.1" stroke="#008300" stroke-width="1" opacity="0.4"/>
<line x1="184.0" y1="334.5" x2="190.0" y2="334.5" stroke="#008300" stroke-width="1" opacity="0.4"/>
<line x1="302.0" y1="338.0" x2="302.0" y2="337.4" stroke="#008300" stroke-width="1" opacity="0.4"/>
<line x1="299.0" y1="338.0" x2="305.0" y2="338.0" stroke="#008300" stroke-width="1" opacity="0.4"/>
<line x1="299.0" y1="337.4" x2="305.0" y2="337.4" stroke="#008300" stroke-width="1" opacity="0.4"/>
<line x1="417.0" y1="338.1" x2="417.0" y2="337.8" stroke="#008300" stroke-width="1" opacity="0.4"/>
<line x1="414.0" y1="338.1" x2="420.0" y2="338.1" stroke="#008300" stroke-width="1" opacity="0.4"/>
<line x1="414.0" y1="337.8" x2="420.0" y2="337.8" stroke="#008300" stroke-width="1" opacity="0.4"/>
<line x1="532.0" y1="339.0" x2="532.0" y2="338.7" stroke="#008300" stroke-width="1" opacity="0.4"/>
<line x1="529.0" y1="339.0" x2="535.0" y2="339.0" stroke="#008300" stroke-width="1" opacity="0.4"/>
<line x1="529.0" y1="338.7" x2="535.0" y2="338.7" stroke="#008300" stroke-width="1" opacity="0.4"/>
<circle cx="72.0" cy="329.2" r="4" fill="#008300" stroke="#fcfcfb" stroke-width="2"/>
<circle cx="187.0" cy="334.8" r="4" fill="#008300" stroke="#fcfcfb" stroke-width="2"/>
<circle cx="302.0" cy="337.7" r="4" fill="#008300" stroke="#fcfcfb" stroke-width="2"/>
<circle cx="417.0" cy="337.9" r="4" fill="#008300" stroke="#fcfcfb" stroke-width="2"/>
<circle cx="532.0" cy="338.9" r="4" fill="#008300" stroke="#fcfcfb" stroke-width="2"/>
<polyline points="72.0,347.5 187.0,347.5 302.0,347.6 417.0,347.5 532.0,347.5" fill="none" stroke="#4a3aa7" stroke-width="2" stroke-linejoin="round" stroke-linecap="round"/>
<line x1="72.0" y1="347.5" x2="72.0" y2="347.5" stroke="#4a3aa7" stroke-width="1" opacity="0.4"/>
<line x1="69.0" y1="347.5" x2="75.0" y2="347.5" stroke="#4a3aa7" stroke-width="1" opacity="0.4"/>
<line x1="69.0" y1="347.5" x2="75.0" y2="347.5" stroke="#4a3aa7" stroke-width="1" opacity="0.4"/>
<line x1="187.0" y1="347.5" x2="187.0" y2="347.5" stroke="#4a3aa7" stroke-width="1" opacity="0.4"/>
<line x1="184.0" y1="347.5" x2="190.0" y2="347.5" stroke="#4a3aa7" stroke-width="1" opacity="0.4"/>
<line x1="184.0" y1="347.5" x2="190.0" y2="347.5" stroke="#4a3aa7" stroke-width="1" opacity="0.4"/>
<line x1="302.0" y1="347.6" x2="302.0" y2="347.6" stroke="#4a3aa7" stroke-width="1" opacity="0.4"/>
<line x1="299.0" y1="347.6" x2="305.0" y2="347.6" stroke="#4a3aa7" stroke-width="1" opacity="0.4"/>
<line x1="299.0" y1="347.6" x2="305.0" y2="347.6" stroke="#4a3aa7" stroke-width="1" opacity="0.4"/>
<line x1="417.0" y1="347.5" x2="417.0" y2="347.5" stroke="#4a3aa7" stroke-width="1" opacity="0.4"/>
<line x1="414.0" y1="347.5" x2="420.0" y2="347.5" stroke="#4a3aa7" stroke-width="1" opacity="0.4"/>
<line x1="414.0" y1="347.5" x2="420.0" y2="347.5" stroke="#4a3aa7" stroke-width="1" opacity="0.4"/>
<line x1="532.0" y1="347.5" x2="532.0" y2="347.5" stroke="#4a3aa7" stroke-width="1" opacity="0.4"/>
<line x1="529.0" y1="347.5" x2="535.0" y2="347.5" stroke="#4a3aa7" stroke-width="1" opacity="0.4"/>
<line x1="529.0" y1="347.5" x2="535.0" y2="347.5" stroke="#4a3aa7" stroke-width="1" opacity="0.4"/>
<circle cx="72.0" cy="347.5" r="4" fill="#4a3aa7" stroke="#fcfcfb" stroke-width="2"/>
<circle cx="187.0" cy="347.5" r="4" fill="#4a3aa7" stroke="#fcfcfb" stroke-width="2"/>
<circle cx="302.0" cy="347.6" r="4" fill="#4a3aa7" stroke="#fcfcfb" stroke-width="2"/>
<circle cx="417.0" cy="347.5" r="4" fill="#4a3aa7" stroke="#fcfcfb" stroke-width="2"/>
<circle cx="532.0" cy="347.5" r="4" fill="#4a3aa7" stroke="#fcfcfb" stroke-width="2"/>
<text x="80.0" y="140.9" fill="#52514e" font-size="9">35.3s</text>
<text x="80.0" y="311.0" fill="#52514e" font-size="9">5.7s</text>
<text x="80.0" y="322.0" fill="#52514e" font-size="9">5.7s</text>
<text x="80.0" y="333.0" fill="#52514e" font-size="9">3.2s</text>
<text x="80.0" y="350.5" fill="#52514e" font-size="9">76ms</text>
<text x="195.0" y="225.5" fill="#52514e" font-size="9">21.1s</text>
<text x="195.0" y="316.8" fill="#52514e" font-size="9">5.0s</text>
<text x="195.0" y="327.8" fill="#52514e" font-size="9">4.5s</text>
<text x="195.0" y="338.8" fill="#52514e" font-size="9">2.2s</text>
<text x="195.0" y="350.5" fill="#52514e" font-size="9">81ms</text>
<text x="310.0" y="269.1" fill="#52514e" font-size="9">13.7s</text>
<text x="310.0" y="319.4" fill="#52514e" font-size="9">4.6s</text>
<text x="310.0" y="330.4" fill="#52514e" font-size="9">3.7s</text>
<text x="310.0" y="341.4" fill="#52514e" font-size="9">1.7s</text>
<text x="310.0" y="352.4" fill="#52514e" font-size="9">75ms</text>
<text x="425.0" y="290.3" fill="#52514e" font-size="9">10.2s</text>
<text x="425.0" y="320.3" fill="#52514e" font-size="9">4.4s</text>
<text x="425.0" y="331.3" fill="#52514e" font-size="9">3.4s</text>
<text x="425.0" y="342.3" fill="#52514e" font-size="9">1.7s</text>
<text x="425.0" y="353.3" fill="#52514e" font-size="9">79ms</text>
<text x="540.0" y="297.0" fill="#52514e" font-size="9">9.1s</text>
<text x="540.0" y="320.4" fill="#52514e" font-size="9">4.3s</text>
<text x="540.0" y="331.4" fill="#52514e" font-size="9">3.5s</text>
<text x="540.0" y="342.4" fill="#52514e" font-size="9">1.5s</text>
<text x="540.0" y="353.4" fill="#52514e" font-size="9">83ms</text>
<line x1="562" y1="60" x2="578" y2="60" stroke="#2a78d6" stroke-width="2" stroke-linecap="round"/>
<circle cx="570" cy="60" r="3.5" fill="#2a78d6" stroke="#fcfcfb" stroke-width="1.5"/>
<text x="584" y="64" fill="#0b0b0b" font-size="12">Timetree</text>
<line x1="562" y1="82" x2="578" y2="82" stroke="#1baf7a" stroke-width="2" stroke-linecap="round"/>
<circle cx="570" cy="82" r="3.5" fill="#1baf7a" stroke="#fcfcfb" stroke-width="1.5"/>
<text x="584" y="86" fill="#0b0b0b" font-size="12">Optimize</text>
<line x1="562" y1="104" x2="578" y2="104" stroke="#eda100" stroke-width="2" stroke-linecap="round"/>
<circle cx="570" cy="104" r="3.5" fill="#eda100" stroke="#fcfcfb" stroke-width="1.5"/>
<text x="584" y="108" fill="#0b0b0b" font-size="12">Ancestral</text>
<line x1="562" y1="126" x2="578" y2="126" stroke="#008300" stroke-width="2" stroke-linecap="round"/>
<circle cx="570" cy="126" r="3.5" fill="#008300" stroke="#fcfcfb" stroke-width="1.5"/>
<text x="584" y="130" fill="#0b0b0b" font-size="12">Mugration</text>
<line x1="562" y1="148" x2="578" y2="148" stroke="#4a3aa7" stroke-width="2" stroke-linecap="round"/>
<circle cx="570" cy="148" r="3.5" fill="#4a3aa7" stroke="#fcfcfb" stroke-width="1.5"/>
<text x="584" y="152" fill="#0b0b0b" font-size="12">Clock</text>
</svg>