<svg xmlns="http://www.w3.org/2000/svg" viewBox="0 0 700 400" font-family="system-ui,-apple-system,sans-serif">
<rect width="700" height="400" fill="#fcfcfb"/>
<text x="72" y="28" fill="#0b0b0b" font-size="15" font-weight="600">Wall-Clock Time vs Thread Count</text>
<line x1="72" y1="348.0" x2="532" y2="348.0" stroke="#e1e0d9" stroke-width="1"/>
<text x="62" y="352.0" fill="#898781" font-size="11" text-anchor="end">0</text>
<line x1="72" y1="281.8" x2="532" y2="281.8" stroke="#e1e0d9" stroke-width="1"/>
<text x="62" y="285.8" fill="#898781" font-size="11" text-anchor="end">2.0s</text>
<line x1="72" y1="215.6" x2="532" y2="215.6" stroke="#e1e0d9" stroke-width="1"/>
<text x="62" y="219.6" fill="#898781" font-size="11" text-anchor="end">4.0s</text>
<line x1="72" y1="149.3" x2="532" y2="149.3" stroke="#e1e0d9" stroke-width="1"/>
<text x="62" y="153.3" fill="#898781" font-size="11" text-anchor="end">6.0s</text>
<line x1="72" y1="83.1" x2="532" y2="83.1" stroke="#e1e0d9" stroke-width="1"/>
<text x="62" y="87.1" fill="#898781" font-size="11" text-anchor="end">8.0s</text>
<line x1="72" y1="348.0" x2="532" y2="348.0" stroke="#c3c2b7" stroke-width="1"/>
<text x="72.0" y="366.0" fill="#898781" font-size="11" text-anchor="middle">1</text>
<text x="187.0" y="366.0" fill="#898781" font-size="11" text-anchor="middle">2</text>
<text x="302.0" y="366.0" fill="#898781" font-size="11" text-anchor="middle">4</text>
<text x="417.0" y="366.0" fill="#898781" font-size="11" text-anchor="middle">8</text>
<text x="532.0" y="366.0" fill="#898781" font-size="11" text-anchor="middle">16</text>
<text x="302.0" y="392.0" fill="#52514e" font-size="12" text-anchor="middle">Threads</text>
<text x="14" y="199.0" fill="#52514e" font-size="12" text-anchor="middle" transform="rotate(-90,14,199.0)">Time (seconds)</text>
<polyline points="72.0,110.7 187.0,210.2 302.0,251.0 417.0,277.1 532.0,283.7" fill="none" stroke="#2a78d6" stroke-width="2" stroke-linejoin="round" stroke-linecap="round"/>
<line x1="72.0" y1="124.2" x2="72.0" y2="99.6" stroke="#2a78d6" stroke-width="1" opacity="0.4"/>
<line x1="69.0" y1="124.2" x2="75.0" y2="124.2" stroke="#2a78d6" stroke-width="1" opacity="0.4"/>
<line x1="69.0" y1="99.6" x2="75.0" y2="99.6" stroke="#2a78d6" stroke-width="1" opacity="0.4"/>
<line x1="187.0" y1="214.0" x2="187.0" y2="198.6" stroke="#2a78d6" stroke-width="1" opacity="0.4"/>
<line x1="184.0" y1="214.0" x2="190.0" y2="214.0" stroke="#2a78d6" stroke-width="1" opacity="0.4"/>
<line x1="184.0" y1="198.6" x2="190.0" y2="198.6" stroke="#2a78d6" stroke-width="1" opacity="0.4"/>
<line x1="302.0" y1="257.2" x2="302.0" y2="242.8" stroke="#2a78d6" stroke-width="1" opacity="0.4"/>
<line x1="299.0" y1="257.2" x2="305.0" y2="257.2" stroke="#2a78d6" stroke-width="1" opacity="0.4"/>
<line x1="299.0" y1="242.8" x2="305.0" y2="242.8" stroke="#2a78d6" stroke-width="1" opacity="0.4"/>
<line x1="417.0" y1="278.1" x2="417.0" y2="274.9" stroke="#2a78d6" stroke-width="1" opacity="0.4"/>
<line x1="414.0" y1="278.1" x2="420.0" y2="278.1" stroke="#2a78d6" stroke-width="1" opacity="0.4"/>
<line x1="414.0" y1="274.9" x2="420.0" y2="274.9" stroke="#2a78d6" stroke-width="1" opacity="0.4"/>
<line x1="532.0" y1="286.3" x2="532.0" y2="281.2" stroke="#2a78d6" stroke-width="1" opacity="0.4"/>
<line x1="529.0" y1="286.3" x2="535.0" y2="286.3" stroke="#2a78d6" stroke-width="1" opacity="0.4"/>
<line x1="529.0" y1="281.2" x2="535.0" y2="281.2" stroke="#2a78d6" stroke-width="1" opacity="0.4"/>
<circle cx="72.0" cy="110.7" r="4" fill="#2a78d6" stroke="#fcfcfb" stroke-width="2"/>
<circle cx="187.0" cy="210.2" r="4" fill="#2a78d6" stroke="#fcfcfb" stroke-width="2"/>
<circle cx="302.0" cy="251.0" r="4" fill="#2a78d6" stroke="#fcfcfb" stroke-width="2"/>
<circle cx="417.0" cy="277.1" r="4" fill="#2a78d6" stroke="#fcfcfb" stroke-width="2"/>
<circle cx="532.0" cy="283.7" r="4" fill="#2a78d6" stroke="#fcfcfb" stroke-width="2"/>
<polyline points="72.0,304.7 187.0,311.2 302.0,315.2 417.0,318.5 532.0,319.7" fill="none" stroke="#1baf7a" stroke-width="2" stroke-linejoin="round" stroke-linecap="round"/>
<line x1="72.0" y1="306.3" x2="72.0" y2="301.5" stroke="#1baf7a" stroke-width="1" opacity="0.4"/>
<line x1="69.0" y1="306.3" x2="75.0" y2="306.3" stroke="#1baf7a" stroke-width="1" opacity="0.4"/>
<line x1="69.0" y1="301.5" x2="75.0" y2="301.5" stroke="#1baf7a" stroke-width="1" opacity="0.4"/>
<line x1="187.0" y1="314.5" x2="187.0" y2="307.6" stroke="#1baf7a" stroke-width="1" opacity="0.4"/>
<line x1="184.0" y1="314.5" x2="190.0" y2="314.5" stroke="#1baf7a" stroke-width="1" opacity="0.4"/>
<line x1="184.0" y1="307.6" x2="190.0" y2="307.6" stroke="#1baf7a" stroke-width="1" opacity="0.4"/>
<line x1="302.0" y1="318.0" x2="302.0" y2="312.8" stroke="#1baf7a" stroke-width="1" opacity="0.4"/>
<line x1="299.0" y1="318.0" x2="305.0" y2="318.0" stroke="#1baf7a" stroke-width="1" opacity="0.4"/>
<line x1="299.0" y1="312.8" x2="305.0" y2="312.8" stroke="#1baf7a" stroke-width="1" opacity="0.4"/>
<line x1="417.0" y1="319.6" x2="417.0" y2="315.0" stroke="#1baf7a" stroke-width="1" opacity="0.4"/>
<line x1="414.0" y1="319.6" x2="420.0" y2="319.6" stroke="#1baf7a" stroke-width="1" opacity="0.4"/>
<line x1="414.0" y1="315.0" x2="420.0" y2="315.0" stroke="#1baf7a" stroke-width="1" opacity="0.4"/>
<line x1="532.0" y1="320.6" x2="532.0" y2="318.4" stroke="#1baf7a" stroke-width="1" opacity="0.4"/>
<line x1="529.0" y1="320.6" x2="535.0" y2="320.6" stroke="#1baf7a" stroke-width="1" opacity="0.4"/>
<line x1="529.0" y1="318.4" x2="535.0" y2="318.4" stroke="#1baf7a" stroke-width="1" opacity="0.4"/>
<circle cx="72.0" cy="304.7" r="4" fill="#1baf7a" stroke="#fcfcfb" stroke-width="2"/>
<circle cx="187.0" cy="311.2" r="4" fill="#1baf7a" stroke="#fcfcfb" stroke-width="2"/>
<circle cx="302.0" cy="315.2" r="4" fill="#1baf7a" stroke="#fcfcfb" stroke-width="2"/>
<circle cx="417.0" cy="318.5" r="4" fill="#1baf7a" stroke="#fcfcfb" stroke-width="2"/>
<circle cx="532.0" cy="319.7" r="4" fill="#1baf7a" stroke="#fcfcfb" stroke-width="2"/>
<polyline points="72.0,302.2 187.0,308.8 302.0,309.7 417.0,311.5 532.0,310.0" fill="none" stroke="#eda100" stroke-width="2" stroke-linejoin="round" stroke-linecap="round"/>
<line x1="72.0" y1="305.6" x2="72.0" y2="297.5" stroke="#eda100" stroke-width="1" opacity="0.4"/>
<line x1="69.0" y1="305.6" x2="75.0" y2="305.6" stroke="#eda100" stroke-width="1" opacity="0.4"/>
<line x1="69.0" y1="297.5" x2="75.0" y2="297.5" stroke="#eda100" stroke-width="1" opacity="0.4"/>
<line x1="187.0" y1="309.6" x2="187.0" y2="307.7" stroke="#eda100" stroke-width="1" opacity="0.4"/>
<line x1="184.0" y1="309.6" x2="190.0" y2="309.6" stroke="#eda100" stroke-width="1" opacity="0.4"/>
<line x1="184.0" y1="307.7" x2="190.0" y2="307.7" stroke="#eda100" stroke-width="1" opacity="0.4"/>
<line x1="302.0" y1="310.7" x2="302.0" y2="307.8" stroke="#eda100" stroke-width="1" opacity="0.4"/>
<line x1="299.0" y1="310.7" x2="305.0" y2="310.7" stroke="#eda100" stroke-width="1" opacity="0.4"/>
<line x1="299.0" y1="307.8" x2="305.0" y2="307.8" stroke="#eda100" stroke-width="1" opacity="0.4"/>
<line x1="417.0" y1="313.8" x2="417.0" y2="307.9" stroke="#eda100" stroke-width="1" opacity="0.4"/>
<line x1="414.0" y1="313.8" x2="420.0" y2="313.8" stroke="#eda100" stroke-width="1" opacity="0.4"/>
<line x1="414.0" y1="307.9" x2="420.0" y2="307.9" stroke="#eda100" stroke-width="1" opacity="0.4"/>
<line x1="532.0" y1="314.3" x2="532.0" y2="296.4" stroke="#eda100" stroke-width="1" opacity="0.4"/>
<line x1="529.0" y1="314.3" x2="535.0" y2="314.3" stroke="#eda100" stroke-width="1" opacity="0.4"/>
<line x1="529.0" y1="296.4" x2="535.0" y2="296.4" stroke="#eda100" stroke-width="1" opacity="0.4"/>
<circle cx="72.0" cy="302.2" r="4" fill="#eda100" stroke="#fcfcfb" stroke-width="2"/>
<circle cx="187.0" cy="308.8" r="4" fill="#eda100" stroke="#fcfcfb" stroke-width="2"/>
<circle cx="302.0" cy="309.7" r="4" fill="#eda100" stroke="#fcfcfb" stroke-width="2"/>
<circle cx="417.0" cy="311.5" r="4" fill="#eda100" stroke="#fcfcfb" stroke-width="2"/>
<circle cx="532.0" cy="310.0" r="4" fill="#eda100" stroke="#fcfcfb" stroke-width="2"/>
<polyline points="72.0,334.9 187.0,337.3 302.0,338.1 417.0,338.6 532.0,338.2" fill="none" stroke="#008300" stroke-width="2" stroke-linejoin="round" stroke-linecap="round"/>
<line x1="72.0" y1="335.0" x2="72.0" y2="334.8" stroke="#008300" stroke-width="1" opacity="0.4"/>
<line x1="69.0" y1="335.0" x2="75.0" y2="335.0" stroke="#008300" stroke-width="1" opacity="0.4"/>
<line x1="69.0" y1="334.8" x2="75.0" y2="334.8" stroke="#008300" stroke-width="1" opacity="0.4"/>
<line x1="187.0" y1="337.5" x2="187.0" y2="337.1" stroke="#008300" stroke-width="1" opacity="0.4"/>
<line x1="184.0" y1="337.5" x2="190.0" y2="337.5" stroke="#008300" stroke-width="1" opacity="0.4"/>
<line x1="184.0" y1="337.1" x2="190.0" y2="337.1" stroke="#008300" stroke-width="1" opacity="0.4"/>
<line x1="302.0" y1="338.9" x2="302.0" y2="337.0" stroke="#008300" stroke-width="1" opacity="0.4"/>
<line x1="299.0" y1="338.9" x2="305.0" y2="338.9" stroke="#008300" stroke-width="1" opacity="0.4"/>
<line x1="299.0" y1="337.0" x2="305.0" y2="337.0" stroke="#008300" stroke-width="1" opacity="0.4"/>
<line x1="417.0" y1="339.2" x2="417.0" y2="338.3" stroke="#008300" stroke-width="1" opacity="0.4"/>
<line x1="414.0" y1="339.2" x2="420.0" y2="339.2" stroke="#008300" stroke-width="1" opacity="0.4"/>
<line x1="414.0" y1="338.3" x2="420.0" y2="338.3" stroke="#008300" stroke-width="1" opacity="0.4"/>
<line x1="532.0" y1="338.7" x2="532.0" y2="337.3" stroke="#008300" stroke-width="1" opacity="0.4"/>
<line x1="529.0" y1="338.7" x2="535.0" y2="338.7" stroke="#008300" stroke-width="1" opacity="0.4"/>
<line x1="529.0" y1="337.3" x2="535.0" y2="337.3" stroke="#008300" stroke-width="1" opacity="0.4"/>
<circle cx="72.0" cy="334.9" r="4" fill="#008300" stroke="#fcfcfb" stroke-width="2"/>
<circle cx="187.0" cy="337.3" r="4" fill="#008300" stroke="#fcfcfb" stroke-width="2"/>
<circle cx="302.0" cy="338.1" r="4" fill="#008300" stroke="#fcfcfb" stroke-width="2"/>
<circle cx="417.0" cy="338.6" r="4" fill="#008300" stroke="#fcfcfb" stroke-width="2"/>
<circle cx="532.0" cy="338.2" r="4" fill="#008300" stroke="#fcfcfb" stroke-width="2"/>
<polyline points="72.0,347.3 187.0,347.2 302.0,347.3 417.0,347.2 532.0,347.2" fill="none" stroke="#4a3aa7" stroke-width="2" stroke-linejoin="round" stroke-linecap="round"/>
<line x1="72.0" y1="347.3" x2="72.0" y2="347.3" stroke="#4a3aa7" stroke-width="1" opacity="0.4"/>
<line x1="69.0" y1="347.3" x2="75.0" y2="347.3" stroke="#4a3aa7" stroke-width="1" opacity="0.4"/>
<line x1="69.0" y1="347.3" x2="75.0" y2="347.3" stroke="#4a3aa7" stroke-width="1" opacity="0.4"/>
<line x1="187.0" y1="347.3" x2="187.0" y2="347.0" stroke="#4a3aa7" stroke-width="1" opacity="0.4"/>
<line x1="184.0" y1="347.3" x2="190.0" y2="347.3" stroke="#4a3aa7" stroke-width="1" opacity="0.4"/>
<line x1="184.0" y1="347.0" x2="190.0" y2="347.0" stroke="#4a3aa7" stroke-width="1" opacity="0.4"/>
<line x1="302.0" y1="347.3" x2="302.0" y2="347.3" stroke="#4a3aa7" stroke-width="1" opacity="0.4"/>
<line x1="299.0" y1="347.3" x2="305.0" y2="347.3" stroke="#4a3aa7" stroke-width="1" opacity="0.4"/>
<line x1="299.0" y1="347.3" x2="305.0" y2="347.3" stroke="#4a3aa7" stroke-width="1" opacity="0.4"/>
<line x1="417.0" y1="347.3" x2="417.0" y2="347.1" stroke="#4a3aa7" stroke-width="1" opacity="0.4"/>
<line x1="414.0" y1="347.3" x2="420.0" y2="347.3" stroke="#4a3aa7" stroke-width="1" opacity="0.4"/>
<line x1="414.0" y1="347.1" x2="420.0" y2="347.1" stroke="#4a3aa7" stroke-width="1" opacity="0.4"/>
<line x1="532.0" y1="347.2" x2="532.0" y2="347.1" stroke="#4a3aa7" stroke-width="1" opacity="0.4"/>
<line x1="529.0" y1="347.2" x2="535.0" y2="347.2" stroke="#4a3aa7" stroke-width="1" opacity="0.4"/>
<line x1="529.0" y1="347.1" x2="535.0" y2="347.1" stroke="#4a3aa7" stroke-width="1" opacity="0.4"/>
<circle cx="72.0" cy="347.3" r="4" fill="#4a3aa7" stroke="#fcfcfb" stroke-width="2"/>
<circle cx="187.0" cy="347.2" r="4" fill="#4a3aa7" stroke="#fcfcfb" stroke-width="2"/>
<circle cx="302.0" cy="347.3" r="4" fill="#4a3aa7" stroke="#fcfcfb" stroke-width="2"/>
<circle cx="417.0" cy="347.2" r="4" fill="#4a3aa7" stroke="#fcfcfb" stroke-width="2"/>
<circle cx="532.0" cy="347.2" r="4" fill="#4a3aa7" stroke="#fcfcfb" stroke-width="2"/>
<text x="80.0" y="113.7" fill="#52514e" font-size="9">7.2s</text>
<text x="80.0" y="300.9" fill="#52514e" font-size="9">1.4s</text>
<text x="80.0" y="311.9" fill="#52514e" font-size="9">1.3s</text>
<text x="80.0" y="337.9" fill="#52514e" font-size="9">0.4s</text>
<text x="80.0" y="350.3" fill="#52514e" font-size="9">20ms</text>
<text x="195.0" y="213.2" fill="#52514e" font-size="9">4.2s</text>
<text x="195.0" y="307.5" fill="#52514e" font-size="9">1.2s</text>
<text x="195.0" y="318.5" fill="#52514e" font-size="9">1.1s</text>
<text x="195.0" y="339.8" fill="#52514e" font-size="9">0.3s</text>
<text x="195.0" y="350.8" fill="#52514e" font-size="9">24ms</text>
<text x="310.0" y="254.0" fill="#52514e" font-size="9">2.9s</text>
<text x="310.0" y="309.9" fill="#52514e" font-size="9">1.2s</text>
<text x="310.0" y="320.9" fill="#52514e" font-size="9">1.0s</text>
<text x="310.0" y="340.2" fill="#52514e" font-size="9">0.3s</text>
<text x="310.0" y="351.2" fill="#52514e" font-size="9">22ms</text>
<text x="425.0" y="280.1" fill="#52514e" font-size="9">2.1s</text>
<text x="425.0" y="312.5" fill="#52514e" font-size="9">1.1s</text>
<text x="425.0" y="323.5" fill="#52514e" font-size="9">0.9s</text>
<text x="425.0" y="340.4" fill="#52514e" font-size="9">0.3s</text>
<text x="425.0" y="351.4" fill="#52514e" font-size="9">23ms</text>
<text x="540.0" y="286.7" fill="#52514e" font-size="9">1.9s</text>
<text x="540.0" y="312.4" fill="#52514e" font-size="9">1.1s</text>
<text x="540.0" y="323.4" fill="#52514e" font-size="9">0.9s</text>
<text x="540.0" y="340.2" fill="#52514e" font-size="9">0.3s</text>
<text x="540.0" y="351.2" fill="#52514e" font-size="9">25ms</text>
<line x1="562" y1="60" x2="578" y2="60" stroke="#2a78d6" stroke-width="2" stroke-linecap="round"/>
<circle cx="570" cy="60" r="3.5" fill="#2a78d6" stroke="#fcfcfb" stroke-width="1.5"/>
<text x="584" y="64" fill="#0b0b0b" font-size="12">Timetree</text>
<line x1="562" y1="82" x2="578" y2="82" stroke="#1baf7a" stroke-width="2" stroke-linecap="round"/>
<circle cx="570" cy="82" r="3.5" fill="#1baf7a" stroke="#fcfcfb" stroke-width="1.5"/>
<text x="584" y="86" fill="#0b0b0b" font-size="12">Optimize</text>
<line x1="562" y1="104" x2="578" y2="104" stroke="#eda100" stroke-width="2" stroke-linecap="round"/>
<circle cx="570" cy="104" r="3.5" fill="#eda100" stroke="#fcfcfb" stroke-width="1.5"/>
<text x="584" y="108" fill="#0b0b0b" font-size="12">Ancestral</text>
<line x1="562" y1="126" x2="578" y2="126" stroke="#008300" stroke-width="2" stroke-linecap="round"/>
<circle cx="570" cy="126" r="3.5" fill="#008300" stroke="#fcfcfb" stroke-width="1.5"/>
<text x="584" y="130" fill="#0b0b0b" font-size="12">Mugration</text>
<line x1="562" y1="148" x2="578" y2="148" stroke="#4a3aa7" stroke-width="2" stroke-linecap="round"/>
<circle cx="570" cy="148" r="3.5" fill="#4a3aa7" stroke="#fcfcfb" stroke-width="1.5"/>
<text x="584" y="152" fill="#0b0b0b" font-size="12">Clock</text>
</svg>