<svg xmlns="http://www.w3.org/2000/svg" viewBox="0 0 700 400" font-family="system-ui,-apple-system,sans-serif">
<rect width="700" height="400" fill="#fcfcfb"/>
<text x="72" y="28" fill="#0b0b0b" font-size="15" font-weight="600">Peak Resident Memory vs Thread Count</text>
<line x1="72" y1="348.0" x2="680" y2="348.0" stroke="#e1e0d9" stroke-width="1"/>
<text x="62" y="352.0" fill="#898781" font-size="11" text-anchor="end">0</text>
<line x1="72" y1="305.4" x2="680" y2="305.4" stroke="#e1e0d9" stroke-width="1"/>
<text x="62" y="309.4" fill="#898781" font-size="11" text-anchor="end">100</text>
<line x1="72" y1="262.9" x2="680" y2="262.9" stroke="#e1e0d9" stroke-width="1"/>
<text x="62" y="266.9" fill="#898781" font-size="11" text-anchor="end">200</text>
<line x1="72" y1="220.3" x2="680" y2="220.3" stroke="#e1e0d9" stroke-width="1"/>
<text x="62" y="224.3" fill="#898781" font-size="11" text-anchor="end">300</text>
<line x1="72" y1="177.7" x2="680" y2="177.7" stroke="#e1e0d9" stroke-width="1"/>
<text x="62" y="181.7" fill="#898781" font-size="11" text-anchor="end">400</text>
<line x1="72" y1="135.1" x2="680" y2="135.1" stroke="#e1e0d9" stroke-width="1"/>
<text x="62" y="139.1" fill="#898781" font-size="11" text-anchor="end">500</text>
<line x1="72" y1="92.6" x2="680" y2="92.6" stroke="#e1e0d9" stroke-width="1"/>
<text x="62" y="96.6" fill="#898781" font-size="11" text-anchor="end">600</text>
<line x1="72" y1="50.0" x2="680" y2="50.0" stroke="#e1e0d9" stroke-width="1"/>
<text x="62" y="54.0" fill="#898781" font-size="11" text-anchor="end">700</text>
<line x1="72" y1="348.0" x2="680" y2="348.0" stroke="#c3c2b7" stroke-width="1"/>
<text x="14" y="199.0" fill="#52514e" font-size="12" text-anchor="middle" transform="rotate(-90,14,199.0)">Peak RSS (MB)</text>
<rect x="78.8" y="127.1" width="20.0" height="220.9" rx="2" fill="#2a78d6"/>
<rect x="100.8" y="219.4" width="20.0" height="128.6" rx="2" fill="#1baf7a"/>
<rect x="122.8" y="181.6" width="20.0" height="166.4" rx="2" fill="#eda100"/>
<rect x="144.8" y="341.9" width="20.0" height="6.1" rx="2" fill="#008300"/>
<rect x="166.8" y="341.5" width="20.0" height="6.5" rx="2" fill="#4a3aa7"/>
<text x="132.8" y="366.0" fill="#898781" font-size="11" text-anchor="middle">1</text>
<rect x="200.4" y="126.7" width="20.0" height="221.3" rx="2" fill="#2a78d6"/>
<rect x="222.4" y="207.9" width="20.0" height="140.1" rx="2" fill="#1baf7a"/>
<rect x="244.4" y="154.8" width="20.0" height="193.2" rx="2" fill="#eda100"/>
<rect x="266.4" y="342.0" width="20.0" height="6.0" rx="2" fill="#008300"/>
<rect x="288.4" y="341.4" width="20.0" height="6.6" rx="2" fill="#4a3aa7"/>
<text x="254.4" y="366.0" fill="#898781" font-size="11" text-anchor="middle">2</text>
<rect x="322.0" y="119.7" width="20.0" height="228.3" rx="2" fill="#2a78d6"/>
<rect x="344.0" y="207.0" width="20.0" height="141.0" rx="2" fill="#1baf7a"/>
<rect x="366.0" y="148.6" width="20.0" height="199.4" rx="2" fill="#eda100"/>
<rect x="388.0" y="341.8" width="20.0" height="6.2" rx="2" fill="#008300"/>
<rect x="410.0" y="341.3" width="20.0" height="6.7" rx="2" fill="#4a3aa7"/>
<text x="376.0" y="366.0" fill="#898781" font-size="11" text-anchor="middle">4</text>
<rect x="443.6" y="114.4" width="20.0" height="233.6" rx="2" fill="#2a78d6"/>
<rect x="465.6" y="198.1" width="20.0" height="149.9" rx="2" fill="#1baf7a"/>
<rect x="487.6" y="147.9" width="20.0" height="200.1" rx="2" fill="#eda100"/>
<rect x="509.6" y="341.7" width="20.0" height="6.3" rx="2" fill="#008300"/>
<rect x="531.6" y="341.1" width="20.0" height="6.9" rx="2" fill="#4a3aa7"/>
<text x="497.6" y="366.0" fill="#898781" font-size="11" text-anchor="middle">8</text>
<rect x="565.2" y="108.8" width="20.0" height="239.2" rx="2" fill="#2a78d6"/>
<rect x="587.2" y="196.8" width="20.0" height="151.2" rx="2" fill="#1baf7a"/>
<rect x="609.2" y="147.5" width="20.0" height="200.5" rx="2" fill="#eda100"/>
<rect x="631.2" y="341.1" width="20.0" height="6.9" rx="2" fill="#008300"/>
<rect x="653.2" y="340.7" width="20.0" height="7.3" rx="2" fill="#4a3aa7"/>
<text x="619.2" y="366.0" fill="#898781" font-size="11" text-anchor="middle">16</text>
<text x="376.0" y="392.0" fill="#52514e" font-size="12" text-anchor="middle">Threads</text>
<rect x="615" y="47" width="10" height="10" rx="2" fill="#4a3aa7"/>
<text x="629" y="56" fill="#0b0b0b" font-size="10">Clock</text>
<rect x="532" y="47" width="10" height="10" rx="2" fill="#008300"/>
<text x="546" y="56" fill="#0b0b0b" font-size="10">Mugration</text>
<rect x="449" y="47" width="10" height="10" rx="2" fill="#eda100"/>
<text x="463" y="56" fill="#0b0b0b" font-size="10">Ancestral</text>
<rect x="373" y="47" width="10" height="10" rx="2" fill="#1baf7a"/>
<text x="387" y="56" fill="#0b0b0b" font-size="10">Optimize</text>
<rect x="297" y="47" width="10" height="10" rx="2" fill="#2a78d6"/>
<text x="311" y="56" fill="#0b0b0b" font-size="10">Timetree</text>
</svg>