<svg xmlns="http://www.w3.org/2000/svg" viewBox="0 0 700 400" font-family="system-ui,-apple-system,sans-serif">
<rect width="700" height="400" fill="#fcfcfb"/>
<text x="72" y="28" fill="#0b0b0b" font-size="15" font-weight="600">Wall-Clock Time vs Thread Count</text>
<line x1="72" y1="348.0" x2="532" y2="348.0" stroke="#e1e0d9" stroke-width="1"/>
<text x="62" y="352.0" fill="#898781" font-size="11" text-anchor="end">0</text>
<line x1="72" y1="288.4" x2="532" y2="288.4" stroke="#e1e0d9" stroke-width="1"/>
<text x="62" y="292.4" fill="#898781" font-size="11" text-anchor="end">10.0s</text>
<line x1="72" y1="228.8" x2="532" y2="228.8" stroke="#e1e0d9" stroke-width="1"/>
<text x="62" y="232.8" fill="#898781" font-size="11" text-anchor="end">20.0s</text>
<line x1="72" y1="169.2" x2="532" y2="169.2" stroke="#e1e0d9" stroke-width="1"/>
<text x="62" y="173.2" fill="#898781" font-size="11" text-anchor="end">30.0s</text>
<line x1="72" y1="109.6" x2="532" y2="109.6" stroke="#e1e0d9" stroke-width="1"/>
<text x="62" y="113.6" fill="#898781" font-size="11" text-anchor="end">40.0s</text>
<line x1="72" y1="50.0" x2="532" y2="50.0" stroke="#e1e0d9" stroke-width="1"/>
<text x="62" y="54.0" fill="#898781" font-size="11" text-anchor="end">50.0s</text>
<line x1="72" y1="348.0" x2="532" y2="348.0" stroke="#c3c2b7" stroke-width="1"/>
<text x="72.0" y="366.0" fill="#898781" font-size="11" text-anchor="middle">1</text>
<text x="187.0" y="366.0" fill="#898781" font-size="11" text-anchor="middle">2</text>
<text x="302.0" y="366.0" fill="#898781" font-size="11" text-anchor="middle">4</text>
<text x="417.0" y="366.0" fill="#898781" font-size="11" text-anchor="middle">8</text>
<text x="532.0" y="366.0" fill="#898781" font-size="11" text-anchor="middle">16</text>
<text x="302.0" y="392.0" fill="#52514e" font-size="12" text-anchor="middle">Threads</text>
<text x="14" y="199.0" fill="#52514e" font-size="12" text-anchor="middle" transform="rotate(-90,14,199.0)">Time (seconds)</text>
<polyline points="72.0,135.0 187.0,222.3 302.0,266.5 417.0,273.3 532.0,263.2" fill="none" stroke="#2a78d6" stroke-width="2" stroke-linejoin="round" stroke-linecap="round"/>
<line x1="72.0" y1="143.2" x2="72.0" y2="113.5" stroke="#2a78d6" stroke-width="1" opacity="0.4"/>
<line x1="69.0" y1="143.2" x2="75.0" y2="143.2" stroke="#2a78d6" stroke-width="1" opacity="0.4"/>
<line x1="69.0" y1="113.5" x2="75.0" y2="113.5" stroke="#2a78d6" stroke-width="1" opacity="0.4"/>
<line x1="187.0" y1="225.1" x2="187.0" y2="216.2" stroke="#2a78d6" stroke-width="1" opacity="0.4"/>
<line x1="184.0" y1="225.1" x2="190.0" y2="225.1" stroke="#2a78d6" stroke-width="1" opacity="0.4"/>
<line x1="184.0" y1="216.2" x2="190.0" y2="216.2" stroke="#2a78d6" stroke-width="1" opacity="0.4"/>
<line x1="302.0" y1="268.7" x2="302.0" y2="263.6" stroke="#2a78d6" stroke-width="1" opacity="0.4"/>
<line x1="299.0" y1="268.7" x2="305.0" y2="268.7" stroke="#2a78d6" stroke-width="1" opacity="0.4"/>
<line x1="299.0" y1="263.6" x2="305.0" y2="263.6" stroke="#2a78d6" stroke-width="1" opacity="0.4"/>
<line x1="417.0" y1="284.9" x2="417.0" y2="250.3" stroke="#2a78d6" stroke-width="1" opacity="0.4"/>
<line x1="414.0" y1="284.9" x2="420.0" y2="284.9" stroke="#2a78d6" stroke-width="1" opacity="0.4"/>
<line x1="414.0" y1="250.3" x2="420.0" y2="250.3" stroke="#2a78d6" stroke-width="1" opacity="0.4"/>
<line x1="532.0" y1="266.9" x2="532.0" y2="259.9" stroke="#2a78d6" stroke-width="1" opacity="0.4"/>
<line x1="529.0" y1="266.9" x2="535.0" y2="266.9" stroke="#2a78d6" stroke-width="1" opacity="0.4"/>
<line x1="529.0" y1="259.9" x2="535.0" y2="259.9" stroke="#2a78d6" stroke-width="1" opacity="0.4"/>
<circle cx="72.0" cy="135.0" r="4" fill="#2a78d6" stroke="#fcfcfb" stroke-width="2"/>
<circle cx="187.0" cy="222.3" r="4" fill="#2a78d6" stroke="#fcfcfb" stroke-width="2"/>
<circle cx="302.0" cy="266.5" r="4" fill="#2a78d6" stroke="#fcfcfb" stroke-width="2"/>
<circle cx="417.0" cy="273.3" r="4" fill="#2a78d6" stroke="#fcfcfb" stroke-width="2"/>
<circle cx="532.0" cy="263.2" r="4" fill="#2a78d6" stroke="#fcfcfb" stroke-width="2"/>
<polyline points="72.0,313.1 187.0,318.5 302.0,325.0 417.0,320.8 532.0,324.0" fill="none" stroke="#1baf7a" stroke-width="2" stroke-linejoin="round" stroke-linecap="round"/>
<line x1="72.0" y1="314.7" x2="72.0" y2="309.7" stroke="#1baf7a" stroke-width="1" opacity="0.4"/>
<line x1="69.0" y1="314.7" x2="75.0" y2="314.7" stroke="#1baf7a" stroke-width="1" opacity="0.4"/>
<line x1="69.0" y1="309.7" x2="75.0" y2="309.7" stroke="#1baf7a" stroke-width="1" opacity="0.4"/>
<line x1="187.0" y1="321.3" x2="187.0" y2="315.4" stroke="#1baf7a" stroke-width="1" opacity="0.4"/>
<line x1="184.0" y1="321.3" x2="190.0" y2="321.3" stroke="#1baf7a" stroke-width="1" opacity="0.4"/>
<line x1="184.0" y1="315.4" x2="190.0" y2="315.4" stroke="#1baf7a" stroke-width="1" opacity="0.4"/>
<line x1="302.0" y1="325.9" x2="302.0" y2="322.7" stroke="#1baf7a" stroke-width="1" opacity="0.4"/>
<line x1="299.0" y1="325.9" x2="305.0" y2="325.9" stroke="#1baf7a" stroke-width="1" opacity="0.4"/>
<line x1="299.0" y1="322.7" x2="305.0" y2="322.7" stroke="#1baf7a" stroke-width="1" opacity="0.4"/>
<line x1="417.0" y1="326.0" x2="417.0" y2="309.2" stroke="#1baf7a" stroke-width="1" opacity="0.4"/>
<line x1="414.0" y1="326.0" x2="420.0" y2="326.0" stroke="#1baf7a" stroke-width="1" opacity="0.4"/>
<line x1="414.0" y1="309.2" x2="420.0" y2="309.2" stroke="#1baf7a" stroke-width="1" opacity="0.4"/>
<line x1="532.0" y1="326.1" x2="532.0" y2="321.7" stroke="#1baf7a" stroke-width="1" opacity="0.4"/>
<line x1="529.0" y1="326.1" x2="535.0" y2="326.1" stroke="#1baf7a" stroke-width="1" opacity="0.4"/>
<line x1="529.0" y1="321.7" x2="535.0" y2="321.7" stroke="#1baf7a" stroke-width="1" opacity="0.4"/>
<circle cx="72.0" cy="313.1" r="4" fill="#1baf7a" stroke="#fcfcfb" stroke-width="2"/>
<circle cx="187.0" cy="318.5" r="4" fill="#1baf7a" stroke="#fcfcfb" stroke-width="2"/>
<circle cx="302.0" cy="325.0" r="4" fill="#1baf7a" stroke="#fcfcfb" stroke-width="2"/>
<circle cx="417.0" cy="320.8" r="4" fill="#1baf7a" stroke="#fcfcfb" stroke-width="2"/>
<circle cx="532.0" cy="324.0" r="4" fill="#1baf7a" stroke="#fcfcfb" stroke-width="2"/>
<polyline points="72.0,313.8 187.0,318.2 302.0,320.5 417.0,319.9 532.0,319.1" fill="none" stroke="#eda100" stroke-width="2" stroke-linejoin="round" stroke-linecap="round"/>
<line x1="72.0" y1="314.8" x2="72.0" y2="312.4" stroke="#eda100" stroke-width="1" opacity="0.4"/>
<line x1="69.0" y1="314.8" x2="75.0" y2="314.8" stroke="#eda100" stroke-width="1" opacity="0.4"/>
<line x1="69.0" y1="312.4" x2="75.0" y2="312.4" stroke="#eda100" stroke-width="1" opacity="0.4"/>
<line x1="187.0" y1="318.6" x2="187.0" y2="317.8" stroke="#eda100" stroke-width="1" opacity="0.4"/>
<line x1="184.0" y1="318.6" x2="190.0" y2="318.6" stroke="#eda100" stroke-width="1" opacity="0.4"/>
<line x1="184.0" y1="317.8" x2="190.0" y2="317.8" stroke="#eda100" stroke-width="1" opacity="0.4"/>
<line x1="302.0" y1="321.0" x2="302.0" y2="319.2" stroke="#eda100" stroke-width="1" opacity="0.4"/>
<line x1="299.0" y1="321.0" x2="305.0" y2="321.0" stroke="#eda100" stroke-width="1" opacity="0.4"/>
<line x1="299.0" y1="319.2" x2="305.0" y2="319.2" stroke="#eda100" stroke-width="1" opacity="0.4"/>
<line x1="417.0" y1="322.1" x2="417.0" y2="317.4" stroke="#eda100" stroke-width="1" opacity="0.4"/>
<line x1="414.0" y1="322.1" x2="420.0" y2="322.1" stroke="#eda100" stroke-width="1" opacity="0.4"/>
<line x1="414.0" y1="317.4" x2="420.0" y2="317.4" stroke="#eda100" stroke-width="1" opacity="0.4"/>
<line x1="532.0" y1="321.6" x2="532.0" y2="315.5" stroke="#eda100" stroke-width="1" opacity="0.4"/>
<line x1="529.0" y1="321.6" x2="535.0" y2="321.6" stroke="#eda100" stroke-width="1" opacity="0.4"/>
<line x1="529.0" y1="315.5" x2="535.0" y2="315.5" stroke="#eda100" stroke-width="1" opacity="0.4"/>
<circle cx="72.0" cy="313.8" r="4" fill="#eda100" stroke="#fcfcfb" stroke-width="2"/>
<circle cx="187.0" cy="318.2" r="4" fill="#eda100" stroke="#fcfcfb" stroke-width="2"/>
<circle cx="302.0" cy="320.5" r="4" fill="#eda100" stroke="#fcfcfb" stroke-width="2"/>
<circle cx="417.0" cy="319.9" r="4" fill="#eda100" stroke="#fcfcfb" stroke-width="2"/>
<circle cx="532.0" cy="319.1" r="4" fill="#eda100" stroke="#fcfcfb" stroke-width="2"/>
<polyline points="72.0,328.4 187.0,333.2 302.0,336.9 417.0,336.4 532.0,337.2" fill="none" stroke="#008300" stroke-width="2" stroke-linejoin="round" stroke-linecap="round"/>
<line x1="72.0" y1="329.5" x2="72.0" y2="326.8" stroke="#008300" stroke-width="1" opacity="0.4"/>
<line x1="69.0" y1="329.5" x2="75.0" y2="329.5" stroke="#008300" stroke-width="1" opacity="0.4"/>
<line x1="69.0" y1="326.8" x2="75.0" y2="326.8" stroke="#008300" stroke-width="1" opacity="0.4"/>
<line x1="187.0" y1="334.2" x2="187.0" y2="332.0" stroke="#008300" stroke-width="1" opacity="0.4"/>
<line x1="184.0" y1="334.2" x2="190.0" y2="334.2" stroke="#008300" stroke-width="1" opacity="0.4"/>
<line x1="184.0" y1="332.0" x2="190.0" y2="332.0" stroke="#008300" stroke-width="1" opacity="0.4"/>
<line x1="302.0" y1="338.2" x2="302.0" y2="335.3" stroke="#008300" stroke-width="1" opacity="0.4"/>
<line x1="299.0" y1="338.2" x2="305.0" y2="338.2" stroke="#008300" stroke-width="1" opacity="0.4"/>
<line x1="299.0" y1="335.3" x2="305.0" y2="335.3" stroke="#008300" stroke-width="1" opacity="0.4"/>
<line x1="417.0" y1="338.8" x2="417.0" y2="334.0" stroke="#008300" stroke-width="1" opacity="0.4"/>
<line x1="414.0" y1="338.8" x2="420.0" y2="338.8" stroke="#008300" stroke-width="1" opacity="0.4"/>
<line x1="414.0" y1="334.0" x2="420.0" y2="334.0" stroke="#008300" stroke-width="1" opacity="0.4"/>
<line x1="532.0" y1="337.8" x2="532.0" y2="336.7" stroke="#008300" stroke-width="1" opacity="0.4"/>
<line x1="529.0" y1="337.8" x2="535.0" y2="337.8" stroke="#008300" stroke-width="1" opacity="0.4"/>
<line x1="529.0" y1="336.7" x2="535.0" y2="336.7" stroke="#008300" stroke-width="1" opacity="0.4"/>
<circle cx="72.0" cy="328.4" r="4" fill="#008300" stroke="#fcfcfb" stroke-width="2"/>
<circle cx="187.0" cy="333.2" r="4" fill="#008300" stroke="#fcfcfb" stroke-width="2"/>
<circle cx="302.0" cy="336.9" r="4" fill="#008300" stroke="#fcfcfb" stroke-width="2"/>
<circle cx="417.0" cy="336.4" r="4" fill="#008300" stroke="#fcfcfb" stroke-width="2"/>
<circle cx="532.0" cy="337.2" r="4" fill="#008300" stroke="#fcfcfb" stroke-width="2"/>
<polyline points="72.0,347.6 187.0,347.6 302.0,347.6 417.0,347.4 532.0,347.5" fill="none" stroke="#4a3aa7" stroke-width="2" stroke-linejoin="round" stroke-linecap="round"/>
<line x1="72.0" y1="347.6" x2="72.0" y2="347.6" stroke="#4a3aa7" stroke-width="1" opacity="0.4"/>
<line x1="69.0" y1="347.6" x2="75.0" y2="347.6" stroke="#4a3aa7" stroke-width="1" opacity="0.4"/>
<line x1="69.0" y1="347.6" x2="75.0" y2="347.6" stroke="#4a3aa7" stroke-width="1" opacity="0.4"/>
<line x1="187.0" y1="347.6" x2="187.0" y2="347.5" stroke="#4a3aa7" stroke-width="1" opacity="0.4"/>
<line x1="184.0" y1="347.6" x2="190.0" y2="347.6" stroke="#4a3aa7" stroke-width="1" opacity="0.4"/>
<line x1="184.0" y1="347.5" x2="190.0" y2="347.5" stroke="#4a3aa7" stroke-width="1" opacity="0.4"/>
<line x1="302.0" y1="347.6" x2="302.0" y2="347.6" stroke="#4a3aa7" stroke-width="1" opacity="0.4"/>
<line x1="299.0" y1="347.6" x2="305.0" y2="347.6" stroke="#4a3aa7" stroke-width="1" opacity="0.4"/>
<line x1="299.0" y1="347.6" x2="305.0" y2="347.6" stroke="#4a3aa7" stroke-width="1" opacity="0.4"/>
<line x1="417.0" y1="347.4" x2="417.0" y2="347.2" stroke="#4a3aa7" stroke-width="1" opacity="0.4"/>
<line x1="414.0" y1="347.4" x2="420.0" y2="347.4" stroke="#4a3aa7" stroke-width="1" opacity="0.4"/>
<line x1="414.0" y1="347.2" x2="420.0" y2="347.2" stroke="#4a3aa7" stroke-width="1" opacity="0.4"/>
<line x1="532.0" y1="347.5" x2="532.0" y2="347.4" stroke="#4a3aa7" stroke-width="1" opacity="0.4"/>
<line x1="529.0" y1="347.5" x2="535.0" y2="347.5" stroke="#4a3aa7" stroke-width="1" opacity="0.4"/>
<line x1="529.0" y1="347.4" x2="535.0" y2="347.4" stroke="#4a3aa7" stroke-width="1" opacity="0.4"/>
<circle cx="72.0" cy="347.6" r="4" fill="#4a3aa7" stroke="#fcfcfb" stroke-width="2"/>
<circle cx="187.0" cy="347.6" r="4" fill="#4a3aa7" stroke="#fcfcfb" stroke-width="2"/>
<circle cx="302.0" cy="347.6" r="4" fill="#4a3aa7" stroke="#fcfcfb" stroke-width="2"/>
<circle cx="417.0" cy="347.4" r="4" fill="#4a3aa7" stroke="#fcfcfb" stroke-width="2"/>
<circle cx="532.0" cy="347.5" r="4" fill="#4a3aa7" stroke="#fcfcfb" stroke-width="2"/>
<text x="80.0" y="138.0" fill="#52514e" font-size="9">35.7s</text>
<text x="80.0" y="310.4" fill="#52514e" font-size="9">5.9s</text>
<text x="80.0" y="321.4" fill="#52514e" font-size="9">5.7s</text>
<text x="80.0" y="332.4" fill="#52514e" font-size="9">3.3s</text>
<text x="80.0" y="350.6" fill="#52514e" font-size="9">73ms</text>
<text x="195.0" y="225.3" fill="#52514e" font-size="9">21.1s</text>
<text x="195.0" y="315.3" fill="#52514e" font-size="9">5.0s</text>
<text x="195.0" y="326.3" fill="#52514e" font-size="9">4.9s</text>
<text x="195.0" y="337.3" fill="#52514e" font-size="9">2.5s</text>
<text x="195.0" y="350.6" fill="#52514e" font-size="9">74ms</text>
<text x="310.0" y="269.5" fill="#52514e" font-size="9">13.7s</text>
<text x="310.0" y="319.0" fill="#52514e" font-size="9">4.6s</text>
<text x="310.0" y="330.0" fill="#52514e" font-size="9">3.9s</text>
<text x="310.0" y="341.0" fill="#52514e" font-size="9">1.9s</text>
<text x="310.0" y="352.0" fill="#52514e" font-size="9">71ms</text>
<text x="425.0" y="276.3" fill="#52514e" font-size="9">12.5s</text>
<text x="425.0" y="317.6" fill="#52514e" font-size="9">4.7s</text>
<text x="425.0" y="328.6" fill="#52514e" font-size="9">4.6s</text>
<text x="425.0" y="339.6" fill="#52514e" font-size="9">2.0s</text>
<text x="425.0" y="350.6" fill="#52514e" font-size="9">0.1s</text>
<text x="540.0" y="266.2" fill="#52514e" font-size="9">14.2s</text>
<text x="540.0" y="318.4" fill="#52514e" font-size="9">4.9s</text>
<text x="540.0" y="329.4" fill="#52514e" font-size="9">4.0s</text>
<text x="540.0" y="340.4" fill="#52514e" font-size="9">1.8s</text>
<text x="540.0" y="351.4" fill="#52514e" font-size="9">91ms</text>
<line x1="562" y1="60" x2="578" y2="60" stroke="#2a78d6" stroke-width="2" stroke-linecap="round"/>
<circle cx="570" cy="60" r="3.5" fill="#2a78d6" stroke="#fcfcfb" stroke-width="1.5"/>
<text x="584" y="64" fill="#0b0b0b" font-size="12">Timetree</text>
<line x1="562" y1="82" x2="578" y2="82" stroke="#1baf7a" stroke-width="2" stroke-linecap="round"/>
<circle cx="570" cy="82" r="3.5" fill="#1baf7a" stroke="#fcfcfb" stroke-width="1.5"/>
<text x="584" y="86" fill="#0b0b0b" font-size="12">Optimize</text>
<line x1="562" y1="104" x2="578" y2="104" stroke="#eda100" stroke-width="2" stroke-linecap="round"/>
<circle cx="570" cy="104" r="3.5" fill="#eda100" stroke="#fcfcfb" stroke-width="1.5"/>
<text x="584" y="108" fill="#0b0b0b" font-size="12">Ancestral</text>
<line x1="562" y1="126" x2="578" y2="126" stroke="#008300" stroke-width="2" stroke-linecap="round"/>
<circle cx="570" cy="126" r="3.5" fill="#008300" stroke="#fcfcfb" stroke-width="1.5"/>
<text x="584" y="130" fill="#0b0b0b" font-size="12">Mugration</text>
<line x1="562" y1="148" x2="578" y2="148" stroke="#4a3aa7" stroke-width="2" stroke-linecap="round"/>
<circle cx="570" cy="148" r="3.5" fill="#4a3aa7" stroke="#fcfcfb" stroke-width="1.5"/>
<text x="584" y="152" fill="#0b0b0b" font-size="12">Clock</text>
</svg>